<svg xmlns="http://www.w3.org/2000/svg" viewBox="0 0 186 45.88"><defs><style>.cls-1{fill:#0099a4;fill-rule:evenodd;}</style></defs><g id="Camada_2" data-name="Camada 2"><g id="Camada_1-2" data-name="Camada 1"><g id="logo-goomer"><path id="Caminho_1" data-name="Caminho 1" class="cls-1" d="M178.28,13.1h-3c-1.06,0-1.44.94-1.5,2.08Q173.38,23,173,30.92c-.05,1.46.24,2.39,1.63,2.39h2.07c1.32,0,1.77-.49,1.85-2l.43-8.08a5,5,0,0,1,1.29-3.2A3.6,3.6,0,0,1,183,18.68h1.56c1.05,0,1.24-.43,1.29-1.34l.15-2.87c0-.75-.27-1.37-1.47-1.37h-1.24a9.08,9.08,0,0,0-3.87.87c0-.59-.51-.87-1.14-.87m-20.73,8.08a5.6,5.6,0,0,1,1-1.26,4.51,4.51,0,0,1,3.23-1.34,4,4,0,0,1,3.09,1.34,5,5,0,0,1,.82,1.26Zm14.1,2a10.1,10.1,0,0,0-2.59-7.3,9.21,9.21,0,0,0-7-3,10.3,10.3,0,0,0-7.35,3,10.56,10.56,0,0,0-3.35,7.3,9.51,9.51,0,0,0,2.58,7.28,9.26,9.26,0,0,0,7,3,10.31,10.31,0,0,0,7.34-3c1.26-1.21.65-2-.1-2.4l-2.13-1.25a3.13,3.13,0,0,0-2.73.49,4.46,4.46,0,0,1-2.08.5,4.23,4.23,0,0,1-4-3h12.57c1.12,0,1.87.05,1.87-1.65M140.76,13a8.75,8.75,0,0,0-6.4,2.82,7.82,7.82,0,0,0-6.1-2.82,8.54,8.54,0,0,0-3.49.77c0-.33-.9-.67-.9-.67h-3.1c-1.23.07-1.79,1.09-1.68,2.47q-.44,8.16-.86,16.3a1.27,1.27,0,0,0,1.45,1.44h2.49c1,0,1.59-.49,1.65-1.62l.45-8.59a5.3,5.3,0,0,1,1.2-3.18A3.16,3.16,0,0,1,128,18.58a2.83,2.83,0,0,1,2.37,1.34,4.85,4.85,0,0,1,.86,3.2l-.45,8.72a1.28,1.28,0,0,0,1.4,1.47h2.5c1,0,1.6-.14,1.67-1.44l.46-8.75a5.41,5.41,0,0,1,1.19-3.2,3.18,3.18,0,0,1,2.51-1.34,2.83,2.83,0,0,1,2.37,1.34,4.92,4.92,0,0,1,.89,3.2q-.24,4.29-.46,8.6c-.08,1.19.4,1.69,1.48,1.58h2.42c1,0,1.59-.25,1.66-1.65l.45-8.53A9.89,9.89,0,0,0,147,16a7.83,7.83,0,0,0-6.23-3M106.33,27.82a4.09,4.09,0,0,1-3.1-1.34,4.33,4.33,0,0,1-1.15-3.27,4.86,4.86,0,0,1,1.5-3.3,4.47,4.47,0,0,1,3.24-1.34,4,4,0,0,1,3.08,1.34,4.35,4.35,0,0,1,1.14,3.3,4.78,4.78,0,0,1-1.49,3.27,4.44,4.44,0,0,1-3.22,1.34m.79-14.92a10.25,10.25,0,0,0-7.36,3,10.63,10.63,0,0,0-3.36,7.3A9.55,9.55,0,0,0,99,30.49a9.26,9.26,0,0,0,7,3,10.27,10.27,0,0,0,7.34-3,10.58,10.58,0,0,0,3.36-7.28,9.56,9.56,0,0,0-2.6-7.3,9.2,9.2,0,0,0-7-3m-22,14.92A4.06,4.06,0,0,1,82,26.48a4.33,4.33,0,0,1-1.15-3.27,4.85,4.85,0,0,1,1.49-3.3,4.5,4.5,0,0,1,3.24-1.34,4,4,0,0,1,3.08,1.34,4.36,4.36,0,0,1,1.15,3.3,4.78,4.78,0,0,1-1.49,3.27,4.44,4.44,0,0,1-3.22,1.34m.78-14.92a10.25,10.25,0,0,0-7.35,3,10.59,10.59,0,0,0-3.36,7.3,9.48,9.48,0,0,0,2.59,7.28,9.26,9.26,0,0,0,7,3,10.23,10.23,0,0,0,7.33-3,10.54,10.54,0,0,0,3.36-7.28,9.51,9.51,0,0,0-2.59-7.3,9.2,9.2,0,0,0-7-3M63,27.75a4,4,0,0,1-3.1-1.35,4.31,4.31,0,0,1-1.15-3.26,4.88,4.88,0,0,1,1.5-3.3,4.55,4.55,0,0,1,3.24-1.34,4.05,4.05,0,0,1,3.08,1.34,4.39,4.39,0,0,1,1.15,3.28v0a4.76,4.76,0,0,1-1.5,3.25A4.41,4.41,0,0,1,63,27.75m9.25-14.66H69.21l-1,.79a9.18,9.18,0,0,0-4.41-1.07,10.26,10.26,0,0,0-7.36,3,10.58,10.58,0,0,0-3.35,7.3,9.58,9.58,0,0,0,2.59,7.29,9.23,9.23,0,0,0,7,3,10.31,10.31,0,0,0,4.53-1v.18a4.77,4.77,0,0,1-1.49,3.26,4.46,4.46,0,0,1-3.23,1.35A3.62,3.62,0,0,1,60,36.35c-2.28-2.06-3.25-1.82-4.94-.7-1.12.8-2,1.74-.44,3.58A10.34,10.34,0,0,0,56.51,41a9.46,9.46,0,0,0,5.71,1.83,10.2,10.2,0,0,0,7.32-3,10.52,10.52,0,0,0,3.38-7.25q.43-8.4.88-16.79c.14-2.6-.18-2.63-1.53-2.71"/><path id="Caminho_2" data-name="Caminho 2" class="cls-1" d="M20.66,13.48a.78.78,0,0,0-.73-.82H17a4,4,0,0,0-3.7,4.14v3.47A3.8,3.8,0,0,0,16.22,24v8.89A16.6,16.6,0,0,1,8.09,26,14.82,14.82,0,0,0,22.67,37.27a15.55,15.55,0,0,0,6.57-1.46,1.49,1.49,0,0,0,.74-.37A14.46,14.46,0,0,0,37.25,26a16.59,16.59,0,0,1-6.74,6.26V24.1A2.48,2.48,0,0,0,32,21.76V13.48a.74.74,0,0,0-1.47-.18.54.54,0,0,0,0,.18v5.38a.77.77,0,0,1-.67.83A.75.75,0,0,1,29,19a.43.43,0,0,1,0-.16V13.48a.74.74,0,0,0-.65-.82.75.75,0,0,0-.82.65v5.55a.75.75,0,1,1-1.49.16.43.43,0,0,1,0-.16V13.48a.74.74,0,0,0-.65-.82.75.75,0,0,0-.82.65v8.45a2.5,2.5,0,0,0,1.47,2.34v9.71a17.88,17.88,0,0,1-5.4.22ZM23,45.88A22.82,22.82,0,0,0,35.4,42.21L40.18,44c1.58.71,2.56-.16,1.92-1.78l-1.65-4.47A23,23,0,1,0,23,45.88"/></g></g></g></svg>